<svg width="46" height="46" viewBox="0 0 46 46" fill="none" xmlns="http://www.w3.org/2000/svg">
<rect width="46" height="46" rx="16" fill="#131F54"/>
<g clip-path="url(#clip0_5113_9217)">
<path d="M31.6327 16.7891C35.1013 16.7891 37.9246 19.704 37.9246 23.2867V30.4083C37.9246 33.9823 35.1084 36.89 31.6469 36.89H15.9158C12.4458 36.89 9.62109 33.9765 9.62109 30.3937V23.2721C9.62109 19.6982 12.4387 16.7891 15.9017 16.7891H17.2319H31.6327Z" fill="white"/>
<path d="M24.5455 29.1578L28.6623 24.9577C29.0868 24.5236 29.0868 23.825 28.6594 23.3924C28.2321 22.9611 27.5429 22.9626 27.1183 23.3952L24.8639 25.6951V11.1068C24.8639 10.4959 24.3757 10 23.7728 10C23.1714 10 22.6846 10.4959 22.6846 11.1068V25.6951L20.4288 23.3952C20.0042 22.9626 19.315 22.9611 18.8877 23.3924C18.674 23.6094 18.5664 23.8926 18.5664 24.1772C18.5664 24.4589 18.674 24.7421 18.8848 24.9577L23.0016 29.1578C23.2068 29.3663 23.4841 29.4841 23.7728 29.4841C24.0629 29.4841 24.3403 29.3663 24.5455 29.1578Z" fill="url(#paint0_linear_5113_9217)"/>
</g>
<defs>
<linearGradient id="paint0_linear_5113_9217" x1="42.012" y1="63.2208" x2="-8.60294" y2="40.609" gradientUnits="userSpaceOnUse">
<stop stop-color="#FFF807"/>
<stop offset="1" stop-color="#00A0FD"/>
</linearGradient>
<clipPath id="clip0_5113_9217">
<rect width="29" height="27" fill="white" transform="translate(9 10)"/>
</clipPath>
</defs>
</svg>
