<svg width="46" height="46" viewBox="0 0 46 46" fill="none" xmlns="http://www.w3.org/2000/svg">
<rect width="46" height="46" rx="16" fill="#131F54"/>
<g clip-path="url(#clip0_5113_9204)">
<path d="M35.543 15.6562H12.3945C10.1854 15.6562 8.39453 17.4471 8.39453 19.6562V30.7273C8.39453 32.9365 10.1854 34.7273 12.3945 34.7273H35.543C37.7522 34.7273 39.543 32.9365 39.543 30.7273V19.6562C39.543 17.4471 37.7522 15.6562 35.543 15.6562Z" fill="white" fill-opacity="0.4"/>
<path d="M32.3587 12.1641H10C7.79086 12.1641 6 13.9549 6 16.1641V27.2352C6 29.4443 7.79086 31.2352 10 31.2352H32.3587C34.5678 31.2352 36.3587 29.4443 36.3587 27.2352V16.1641C36.3587 13.9549 34.5678 12.1641 32.3587 12.1641Z" fill="white"/>
<path d="M21.1784 25.7475C23.4128 25.7475 25.2241 23.9362 25.2241 21.7019C25.2241 19.4675 23.4128 17.6562 21.1784 17.6562C18.9441 17.6562 17.1328 19.4675 17.1328 21.7019C17.1328 23.9362 18.9441 25.7475 21.1784 25.7475Z" fill="url(#paint0_linear_5113_9204)"/>
<path d="M12.0644 20.2929C13.2046 20.2929 14.1288 19.3686 14.1288 18.2285C14.1288 17.0883 13.2046 16.1641 12.0644 16.1641C10.9243 16.1641 10 17.0883 10 18.2285C10 19.3686 10.9243 20.2929 12.0644 20.2929Z" fill="url(#paint1_linear_5113_9204)"/>
<path d="M30.2949 27.2343C31.435 27.2343 32.3593 26.31 32.3593 25.1699C32.3593 24.0297 31.435 23.1055 30.2949 23.1055C29.1547 23.1055 28.2305 24.0297 28.2305 25.1699C28.2305 26.31 29.1547 27.2343 30.2949 27.2343Z" fill="url(#paint2_linear_5113_9204)"/>
</g>
<defs>
<linearGradient id="paint0_linear_5113_9204" x1="35.3492" y1="39.7575" x2="7.57701" y2="16.5444" gradientUnits="userSpaceOnUse">
<stop stop-color="#FFF807"/>
<stop offset="1" stop-color="#00A0FD"/>
</linearGradient>
<linearGradient id="paint1_linear_5113_9204" x1="19.2955" y1="27.4419" x2="5.12384" y2="15.5967" gradientUnits="userSpaceOnUse">
<stop stop-color="#FFF807"/>
<stop offset="1" stop-color="#00A0FD"/>
</linearGradient>
<linearGradient id="paint2_linear_5113_9204" x1="37.526" y1="34.3833" x2="23.3543" y2="22.5381" gradientUnits="userSpaceOnUse">
<stop stop-color="#FFF807"/>
<stop offset="1" stop-color="#00A0FD"/>
</linearGradient>
<clipPath id="clip0_5113_9204">
<rect width="34" height="23" fill="white" transform="translate(6 12)"/>
</clipPath>
</defs>
</svg>
