<svg width="421" height="424" viewBox="0 0 421 424" fill="none" xmlns="http://www.w3.org/2000/svg">
<path d="M232.438 421.663C215.198 413.503 208.328 394.103 205.898 376.033C205.488 373.033 204.628 369.913 205.608 367.033C206.588 364.153 209.608 361.803 212.508 362.613C214.918 363.283 216.328 365.703 217.938 367.613C220.079 370.189 222.909 372.104 226.098 373.133C228.178 373.803 230.648 374.012 232.358 372.652C234.698 370.782 234.358 367.162 233.878 364.182C232.898 358.656 231.938 353.129 230.998 347.603C230.32 344.653 230.121 341.615 230.408 338.603C230.848 335.603 232.458 332.603 235.158 331.363C237.858 330.123 241.648 331.133 242.738 333.953C243.059 335.165 243.3 336.398 243.458 337.643C243.748 338.873 244.558 340.143 245.788 340.293C247.018 340.443 248.088 339.393 248.838 338.363C251.398 334.833 252.838 330.603 254.138 326.413C255.438 322.223 256.658 317.953 258.898 314.193C261.138 310.433 264.558 307.193 268.788 306.193C273.018 305.193 278.018 307.093 279.788 311.103C281.558 315.113 279.848 319.803 277.788 323.663C274.659 329.378 270.722 334.612 266.098 339.203C265.176 339.937 264.51 340.946 264.198 342.083C263.888 344.183 266.108 345.843 268.198 346.163C270.538 346.523 272.918 345.883 275.288 345.763C277.658 345.643 280.348 346.243 281.608 348.293C283.338 351.133 281.328 354.763 279.178 357.293C274.859 362.333 269.708 366.595 263.948 369.893C261.888 371.063 259.698 372.163 258.188 374.003C256.678 375.842 256.068 378.702 257.488 380.622C258.908 382.542 261.778 382.752 263.998 381.932C266.218 381.112 268.068 379.523 270.118 378.333C273.958 376.093 279.298 375.473 282.528 378.573C283.535 379.656 284.277 380.959 284.695 382.379C285.114 383.798 285.197 385.296 284.938 386.753C284.406 389.655 283.294 392.42 281.668 394.883C276.489 403.785 269.043 411.155 260.088 416.243C251.138 421.143 242.478 423.533 232.448 421.673" fill="url(#paint0_linear_5643_520)"/>
<path d="M235.168 409.605C236.494 399.313 238.411 389.106 240.908 379.035L242.828 371.105C243.458 368.495 244.088 365.915 244.828 363.435C246.323 358.675 248.079 354.001 250.088 349.435C251.978 345.055 253.928 340.955 255.778 337.145C257.628 333.335 259.438 329.815 261.218 326.685C263.996 321.72 267.167 316.985 270.698 312.525C271.948 310.945 272.958 309.755 273.648 308.955C273.978 308.575 274.248 308.275 274.438 308.045C274.628 307.815 274.718 307.745 274.728 307.755C274.656 307.87 274.575 307.98 274.488 308.085L273.728 309.025C273.068 309.845 272.088 311.025 270.868 312.655C267.414 317.159 264.302 321.916 261.558 326.885C259.808 330.025 258.028 333.545 256.188 337.355C254.348 341.165 252.428 345.265 250.558 349.645C248.567 354.212 246.831 358.885 245.358 363.645C244.588 366.115 243.968 368.645 243.358 371.285L241.438 379.225C238.946 389.276 237.02 399.458 235.668 409.725" fill="#E0E0E0"/>
<path d="M245 363.393C244.783 363.003 244.612 362.591 244.49 362.163C244.19 361.373 243.8 360.163 243.34 358.753C242.42 355.853 241.28 351.802 240.04 347.342C238.8 342.882 237.61 338.853 236.64 335.983C236.16 334.543 235.76 333.373 235.48 332.583C235.312 332.172 235.181 331.747 235.09 331.312C235.331 331.685 235.529 332.085 235.68 332.503C236.03 333.273 236.48 334.422 237.01 335.842C238.08 338.702 239.33 342.713 240.58 347.193C241.83 351.673 242.88 355.593 243.72 358.633C244.11 360.013 244.43 361.173 244.72 362.103C244.851 362.523 244.944 362.955 245 363.393Z" fill="#E0E0E0"/>
<path d="M282.147 349.734C281.663 349.936 281.161 350.087 280.647 350.184C279.647 350.434 278.277 350.794 276.557 351.294C273.107 352.294 268.397 353.774 263.267 355.674C258.137 357.574 253.567 359.504 250.267 360.984C248.627 361.714 247.317 362.344 246.407 362.774C245.949 363.023 245.471 363.231 244.977 363.394C245.39 363.076 245.836 362.801 246.307 362.574C247.187 362.084 248.477 361.404 250.097 360.574C253.327 358.994 257.887 357.004 263.027 355.094C267.413 353.453 271.883 352.041 276.417 350.864C278.157 350.404 279.577 350.104 280.567 349.914C281.086 349.805 281.615 349.745 282.147 349.734Z" fill="#E0E0E0"/>
<path d="M235.516 408.835C235.388 408.704 235.274 408.56 235.176 408.405L234.286 407.135C233.516 406.015 232.446 404.385 231.156 402.345C228.556 398.265 225.156 392.515 221.486 386.115C217.816 379.715 214.486 373.945 211.956 369.825L208.956 364.935L208.156 363.605C208.051 363.458 207.966 363.296 207.906 363.125C207.906 363.125 208.036 363.255 208.246 363.545C208.456 363.835 208.786 364.305 209.136 364.825C209.906 365.935 210.976 367.565 212.276 369.615C214.866 373.695 218.276 379.435 221.946 385.835C225.616 392.235 228.946 398.005 231.466 402.135L234.466 407.015C234.786 407.545 235.056 408.015 235.266 408.345C235.374 408.495 235.458 408.66 235.516 408.835Z" fill="#E0E0E0"/>
<path d="M283.697 383.781C283.556 383.904 283.397 384.005 283.227 384.081L281.837 384.821L276.677 387.511C272.317 389.791 266.337 393.001 259.737 396.511C253.137 400.021 247.127 403.231 242.737 405.411C240.537 406.501 238.737 407.411 237.497 407.941L235.997 408.601C235.832 408.689 235.657 408.756 235.477 408.801C235.62 408.681 235.778 408.58 235.947 408.501L237.347 407.761L242.507 405.061C246.857 402.791 252.837 399.581 259.437 396.061C266.037 392.541 272.057 389.351 276.437 387.171C278.637 386.081 280.437 385.171 281.677 384.641L283.117 383.981C283.298 383.885 283.494 383.818 283.697 383.781Z" fill="#E0E0E0"/>
<path d="M107.399 207.014C107.399 207.014 95.5193 208.664 102.189 234.684C108.859 260.704 114.519 274.124 114.519 274.124C114.519 274.124 115.409 280.014 110.659 279.834C105.909 279.654 96.2193 275.834 92.9293 280.924C89.5293 286.244 92.5093 292.644 99.9293 299.354C107.349 306.064 123.169 321.354 124.589 322.744C126.009 324.134 127.049 326.994 123.789 327.384C120.529 327.774 97.4093 325.064 96.7893 336.114C96.1693 347.164 119.999 362.444 122.569 364.164C125.139 365.884 125.569 367.224 124.969 368.724C124.369 370.224 116.709 368.574 110.099 368.064C103.489 367.554 95.7293 368.144 95.8993 374.544C96.0693 380.944 108.589 397.144 145.089 409.184L162.379 413.654L175.149 401.074C200.849 372.484 203.659 352.214 200.629 346.574C197.599 340.934 190.629 344.284 185.089 348.004C179.549 351.724 173.749 357.004 172.509 356.004C171.269 355.004 170.949 353.624 172.329 350.854C173.709 348.084 186.799 322.984 180.759 313.704C174.719 304.424 155.999 318.244 152.999 319.514C149.999 320.784 149.459 317.764 149.999 315.884C150.539 314.004 156.639 292.884 159.779 283.334C162.919 273.784 162.319 266.764 156.719 263.844C151.319 261.034 144.829 269.194 140.789 271.714C136.749 274.234 134.609 268.714 134.609 268.714C134.609 268.714 132.849 254.264 125.709 228.364C118.569 202.464 107.179 207.104 107.179 207.104" fill="url(#paint1_linear_5643_520)"/>
<path d="M162.369 417.952C157.199 398.952 148.569 364.952 141.019 335.762C133.469 306.572 126.609 280.252 121.529 261.192C118.989 251.672 116.929 243.972 115.529 238.622C114.829 235.972 114.279 233.902 113.899 232.482L113.479 230.882C113.389 230.522 113.359 230.332 113.359 230.332C113.359 230.332 113.429 230.502 113.539 230.862C113.649 231.222 113.799 231.772 113.999 232.452C114.409 233.872 114.999 235.922 115.739 238.562C117.239 243.872 119.359 251.562 121.939 261.082C127.109 280.082 134.039 306.492 141.589 335.622C149.139 364.752 157.699 398.782 162.779 417.842" fill="#E0E0E0"/>
<path d="M106.27 286.863C106.669 287.028 107.051 287.232 107.41 287.473C108.12 287.893 109.14 288.533 110.41 289.333C112.9 290.943 116.29 293.253 119.98 295.863L129.4 302.583L132.27 304.583C132.631 304.808 132.967 305.073 133.27 305.373C132.866 305.21 132.481 305.006 132.12 304.763C131.41 304.343 130.39 303.703 129.12 302.893C126.65 301.263 123.29 298.893 119.6 296.293L110.13 289.643L107.25 287.643C106.896 287.419 106.567 287.157 106.27 286.863Z" fill="#E0E0E0"/>
<path d="M134.718 304.542C134.588 304.462 139.038 297.272 144.648 288.482C150.258 279.692 154.928 272.632 155.058 272.712C155.188 272.792 150.738 279.992 145.118 288.782C139.498 297.572 134.848 304.602 134.718 304.542Z" fill="#E0E0E0"/>
<path d="M144.297 349.825C144.574 349.479 144.893 349.17 145.247 348.905L147.937 346.545C150.207 344.545 153.337 341.785 156.677 338.605C160.017 335.425 162.957 332.455 165.057 330.285C166.057 329.285 166.877 328.395 167.547 327.715C167.85 327.379 168.185 327.075 168.547 326.805C168.325 327.187 168.057 327.54 167.747 327.855C167.207 328.505 166.397 329.425 165.377 330.545C163.377 332.795 160.457 335.825 157.097 339.005C153.737 342.185 150.577 344.925 148.237 346.845C147.057 347.845 146.097 348.565 145.417 349.075C145.072 349.365 144.697 349.617 144.297 349.825Z" fill="#E0E0E0"/>
<path d="M115.047 339.492C115.451 339.541 115.847 339.638 116.227 339.782L119.397 340.782C122.057 341.632 125.727 342.842 129.767 344.202C133.807 345.562 137.457 346.842 140.087 347.792L143.197 348.932C143.584 349.053 143.956 349.218 144.307 349.422C143.903 349.381 143.506 349.287 143.127 349.142L139.957 348.142C137.297 347.292 133.627 346.082 129.587 344.712C125.547 343.342 121.897 342.072 119.267 341.132L116.157 339.982C115.767 339.869 115.393 339.705 115.047 339.492Z" fill="#E0E0E0"/>
<path d="M118.43 380.543C118.944 380.62 119.45 380.747 119.94 380.923L124 382.163C127.42 383.233 132.13 384.743 137.33 386.453C142.53 388.163 147.22 389.723 150.61 390.893L154.61 392.293C155.107 392.452 155.592 392.65 156.06 392.883C155.542 392.807 155.033 392.68 154.54 392.503L150.48 391.263C147.06 390.193 142.35 388.683 137.15 386.973C131.95 385.263 127.26 383.693 123.88 382.533L119.88 381.123C119.38 380.974 118.895 380.78 118.43 380.543Z" fill="#E0E0E0"/>
<path d="M155.238 392.335C155.59 391.902 155.982 391.504 156.408 391.145L159.718 388.035C162.508 385.405 166.348 381.755 170.478 377.605C174.608 373.455 178.258 369.605 180.878 366.805L183.978 363.485C184.343 363.061 184.741 362.666 185.168 362.305C184.877 362.775 184.542 363.217 184.168 363.625C183.488 364.455 182.468 365.625 181.168 367.065C178.618 369.945 175.018 373.845 170.868 377.995C166.718 382.145 162.868 385.765 159.988 388.325C158.548 389.595 157.378 390.625 156.548 391.325C156.14 391.697 155.702 392.035 155.238 392.335Z" fill="#E0E0E0"/>
<path d="M2.25819 171.733L10.2582 168.633C10.2582 168.633 7.6582 161.883 14.6282 159.053C15.9622 158.489 17.4384 158.352 18.8533 158.662C20.2682 158.972 21.5522 159.713 22.5282 160.783C23.3586 161.673 23.9671 162.746 24.3042 163.916C24.6413 165.085 24.6975 166.318 24.4682 167.513C23.9682 170.293 21.7682 173.513 15.9782 174.623L22.9782 192.753L30.9782 189.693L26.8782 179.073C26.8782 179.073 36.8782 171.893 32.1882 159.593C27.6382 147.833 15.9982 149.173 11.5282 150.903C8.07819 152.233 -3.36181 157.603 2.25819 171.733Z" fill="url(#paint2_linear_5643_520)"/>
<path d="M32.4936 193.382L24.4219 196.492L27.3267 204.032L35.3984 200.922L32.4936 193.382Z" fill="url(#paint3_linear_5643_520)"/>
<path d="M405.539 128.217L409.339 129.587C409.498 129.157 409.742 128.763 410.056 128.428C410.37 128.093 410.748 127.825 411.168 127.639C411.587 127.452 412.039 127.352 412.498 127.343C412.957 127.334 413.413 127.417 413.839 127.587C414.479 127.793 415.04 128.192 415.445 128.729C415.849 129.266 416.078 129.915 416.099 130.587C416.123 131.16 416.01 131.731 415.77 132.253C415.53 132.774 415.17 133.232 414.719 133.587C413.719 134.417 411.929 134.867 409.529 133.487L406.419 142.057L410.179 143.417L411.999 138.417C413.706 138.523 415.4 138.065 416.822 137.115C418.243 136.165 419.314 134.774 419.869 133.157C421.869 127.597 417.359 124.507 415.229 123.737C413.599 123.097 407.899 121.487 405.539 128.217Z" fill="url(#paint4_linear_5643_520)"/>
<path d="M409.614 145.156L405.797 143.773L404.506 147.337L408.324 148.72L409.614 145.156Z" fill="url(#paint5_linear_5643_520)"/>
<path d="M408.669 202.248L402.969 204.438C402.969 204.438 404.809 209.228 399.869 211.228C398.923 211.623 397.879 211.718 396.877 211.5C395.875 211.281 394.965 210.761 394.269 210.008C393.681 209.377 393.25 208.616 393.012 207.787C392.774 206.958 392.735 206.084 392.899 205.238C393.259 203.238 394.819 200.998 398.899 200.238L393.999 187.348L388.359 189.518L391.259 197.048C389.207 198.618 387.727 200.819 387.047 203.312C386.368 205.806 386.527 208.453 387.499 210.848C390.709 219.178 398.929 218.238 402.129 217.008C404.549 216.058 412.649 212.258 408.669 202.248Z" fill="url(#paint6_linear_5643_520)"/>
<path d="M387.241 186.903L392.961 184.699L390.905 179.362L385.184 181.565L387.241 186.903Z" fill="url(#paint7_linear_5643_520)"/>
<path d="M46.6407 397.403C47.6407 393.723 45.1707 390.033 42.4707 387.403C39.7707 384.773 36.5407 382.353 35.1307 378.823C32.8507 373.103 35.9107 365.703 32.0307 360.933C29.7407 358.133 25.6407 357.193 23.6107 354.193C22.6721 352.54 22.0514 350.725 21.7807 348.843C19.6229 339.343 14.9497 330.597 8.25069 323.523C7.79911 331.986 9.63325 340.414 13.5607 347.923C15.1307 350.923 17.0707 353.843 17.5607 357.193C18.4107 362.623 15.3707 368.193 16.7107 373.553C18.2407 379.653 25.0907 383.743 25.4107 390.023C25.6907 395.333 21.0607 400.023 21.4107 405.303C21.6911 407.565 22.5108 409.725 23.8007 411.603C27.9007 418.433 33.9407 423.133 43.0807 422.983L54.2807 423.373L46.6407 397.403Z" fill="#131F54"/>
<g opacity="0.3">
<path d="M46.6407 397.403C47.6407 393.723 45.1707 390.033 42.4707 387.403C39.7707 384.773 36.5407 382.353 35.1307 378.823C32.8507 373.103 35.9107 365.703 32.0307 360.933C29.7407 358.133 25.6407 357.193 23.6107 354.193C22.6721 352.54 22.0514 350.725 21.7807 348.843C19.6229 339.343 14.9497 330.597 8.25069 323.523C7.79911 331.986 9.63325 340.414 13.5607 347.923C15.1307 350.923 17.0707 353.843 17.5607 357.193C18.4107 362.623 15.3707 368.193 16.7107 373.553C18.2407 379.653 25.0907 383.743 25.4107 390.023C25.6907 395.333 21.0607 400.023 21.4107 405.303C21.6911 407.565 22.5108 409.725 23.8007 411.603C27.9007 418.433 33.9407 423.133 43.0807 422.983L54.2807 423.373L46.6407 397.403Z" fill="black"/>
</g>
<path d="M56.5412 423.602C57.5669 423.76 58.6123 423.74 59.6311 423.542C60.8681 423.354 62.0839 423.045 63.2612 422.622C64.887 422.056 66.4076 421.225 67.7612 420.162C68.5755 419.507 69.2118 418.657 69.6112 417.692C69.9457 416.61 70.1208 415.484 70.1311 414.352C70.1537 413.141 70.2438 411.932 70.4012 410.732C70.6118 409.454 71.0741 408.23 71.7612 407.132C73.0812 404.812 75.2812 402.612 75.9812 399.462C76.6812 396.312 76.2012 393.012 75.6812 389.652C75.1612 386.292 74.6812 382.652 75.9412 379.132C77.2012 375.612 79.6012 372.462 80.8312 368.522C82.0612 364.582 81.4811 360.242 81.7411 356.012C81.8179 353.863 82.3139 351.75 83.2011 349.792C84.1012 347.792 85.3611 345.942 86.3411 343.862C88.3411 339.642 88.6812 334.862 89.2212 330.172C89.4912 327.812 89.7512 325.422 90.0212 323.022C90.1914 320.595 90.6102 318.193 91.2712 315.852C92.0299 313.492 92.9247 311.178 93.9511 308.922C94.4798 307.755 94.9145 306.548 95.2512 305.312C95.4395 304.032 95.5597 302.744 95.6112 301.452C95.7304 298.865 95.63 296.272 95.3111 293.702C95.0112 291.122 94.5411 288.562 94.2611 285.972C94.2611 285.812 94.2611 285.662 94.2611 285.522L94.2011 285.012L93.7512 285.232C91.3867 286.445 89.3337 288.187 87.7512 290.322C86.1991 292.412 84.9501 294.712 84.0411 297.152C82.1711 301.962 81.5012 307.002 80.5611 311.812C79.6211 316.622 78.4212 321.352 75.9612 325.352C74.7312 327.352 73.2412 329.172 71.9612 331.112C70.5712 333.005 69.6215 335.185 69.1812 337.492C68.5112 342.232 71.1212 346.392 70.5812 350.592C70.3375 352.649 69.6555 354.63 68.5812 356.402C67.5812 358.192 66.3712 359.852 65.2312 361.512C64.0757 363.14 63.0715 364.871 62.2312 366.682C61.4402 368.454 60.9728 370.354 60.8511 372.292C60.5811 376.072 61.1111 379.652 60.8511 383.032C60.5389 386.253 59.5978 389.382 58.0812 392.242C56.7312 394.992 55.2212 397.482 53.9612 399.902C53.3312 401.102 52.7412 402.282 52.2612 403.472C51.8069 404.614 51.4718 405.8 51.2612 407.012C50.9265 409.127 50.8995 411.279 51.1812 413.402C51.475 416.362 52.5825 419.183 54.3811 421.552C54.6561 421.91 54.9605 422.244 55.2912 422.552C55.512 422.783 55.7567 422.991 56.0211 423.172C56.4411 423.482 56.6612 423.622 56.6612 423.622C55.8617 422.99 55.134 422.272 54.4911 421.482C52.7743 419.104 51.7372 416.304 51.4911 413.382C51.2365 411.286 51.2837 409.164 51.6311 407.082C51.8417 405.9 52.1769 404.743 52.6311 403.632C53.1378 402.429 53.7087 401.254 54.3411 400.112C55.6111 397.712 57.1312 395.232 58.5112 392.462C60.0731 389.558 61.0451 386.373 61.3712 383.092C61.6712 379.642 61.1512 376.042 61.4312 372.362C61.56 370.487 62.0169 368.649 62.7811 366.932C63.6267 365.158 64.6308 363.465 65.7811 361.872C66.9212 360.212 68.1311 358.552 69.1712 356.722C70.3126 354.883 71.0426 352.819 71.3111 350.672C71.8512 346.202 69.2612 342.022 69.9312 337.612C70.3695 335.406 71.2879 333.323 72.6212 331.512C73.8912 329.602 75.3912 327.782 76.6212 325.732C79.1712 321.622 80.4012 316.802 81.3312 311.972C82.2612 307.142 82.9511 302.142 84.7911 297.422C85.6761 295.05 86.8914 292.814 88.4011 290.782C89.9235 288.733 91.898 287.063 94.1712 285.902L93.6612 285.612C93.6612 285.762 93.6612 285.912 93.7112 286.072C93.9912 288.692 94.4612 291.252 94.7112 293.812C95.0269 296.342 95.124 298.895 95.0012 301.442C94.9506 302.693 94.8371 303.942 94.6612 305.182C94.338 306.378 93.9165 307.545 93.4011 308.672C92.3692 310.952 91.4678 313.289 90.7011 315.672C90.0346 318.049 89.6125 320.489 89.4412 322.952C89.1812 325.362 88.9111 327.752 88.6511 330.112C88.1111 334.822 87.7612 339.522 85.8512 343.592C84.8512 345.592 83.6512 347.502 82.7212 349.542C81.8059 351.574 81.2964 353.765 81.2212 355.992C80.9712 360.312 81.5312 364.542 80.3612 368.362C79.1912 372.182 76.7612 375.362 75.5312 378.972C74.3012 382.582 74.7512 386.402 75.2912 389.752C75.8312 393.102 76.3712 396.402 75.6512 399.372C74.9312 402.342 72.8712 404.562 71.5312 406.942C70.8247 408.088 70.3522 409.362 70.1412 410.692C69.9901 411.906 69.91 413.128 69.9012 414.352C69.9028 415.456 69.741 416.555 69.4212 417.612C69.0507 418.528 68.4558 419.336 67.6912 419.962C66.3739 421.024 64.8907 421.862 63.3012 422.442C62.1394 422.89 60.9371 423.224 59.7112 423.442C58.9619 423.578 58.2026 423.651 57.4412 423.662C56.8112 423.602 56.5412 423.602 56.5412 423.602Z" fill="#263238"/>
<path d="M91.9203 291.703C91.8669 291.81 91.8298 291.925 91.8103 292.043L91.5703 293.043C91.3503 293.933 91.0803 295.263 90.6603 296.923C90.2403 298.583 89.2103 300.463 88.3403 302.773C87.3214 305.374 86.4336 308.024 85.6803 310.713C84.8203 313.713 84.0703 317.013 83.2703 320.573C82.5905 324.365 81.3855 328.044 79.6903 331.503C78.7703 333.323 77.6903 335.163 76.9203 337.183C76.1129 339.246 75.5718 341.403 75.3103 343.603C74.7415 348.159 73.9337 352.682 72.8903 357.153C70.6503 366.323 68.5103 375.063 66.5603 383.023C64.6103 390.983 62.7703 398.103 61.2503 404.123C59.7303 410.143 58.5803 414.943 57.7403 418.373C57.3503 420.013 57.0403 421.303 56.8203 422.253C56.7303 422.663 56.6503 422.993 56.5903 423.253C56.5793 423.37 56.5793 423.487 56.5903 423.603C56.6484 423.5 56.6922 423.389 56.7203 423.273C56.7903 423.003 56.8903 422.683 57.0103 422.273C57.2603 421.343 57.6103 420.053 58.0603 418.423C58.9603 415.023 60.2303 410.193 61.8003 404.243C63.3703 398.293 65.2003 391.093 67.2503 383.183C69.3003 375.273 71.3803 366.473 73.6403 357.293C74.6771 352.81 75.465 348.273 76.0003 343.703C76.2559 341.556 76.7799 339.45 77.5603 337.433C78.3503 335.433 79.3603 333.643 80.2803 331.803C82.2803 328.153 83.0703 324.233 83.8603 320.703C84.6503 317.173 85.3503 313.833 86.1703 310.853C86.9903 307.873 87.8503 305.213 88.7103 302.913C89.5703 300.613 90.5203 298.713 90.9303 296.993C91.3403 295.273 91.5303 293.993 91.7103 293.073C91.777 292.66 91.837 292.326 91.8903 292.073C91.9203 291.823 91.9403 291.703 91.9203 291.703Z" fill="#263238"/>
<path d="M58.5191 423.652C65.8291 419.302 67.9291 406.102 64.8791 398.162C61.8291 390.222 56.4891 382.962 55.6691 374.492C55.0291 367.982 57.1691 361.302 55.6691 354.942C53.6191 346.352 45.2391 339.702 45.3391 330.872C45.3891 325.922 48.2091 321.262 47.9791 316.312C47.7091 310.252 43.0491 305.432 40.1691 300.092C35.7491 291.902 35.4591 282.232 33.9491 273.092C32.4391 263.952 28.9491 254.092 20.8091 249.582C19.6091 257.372 17.5591 262.712 18.1991 273.262C18.4391 277.052 22.8391 284.262 23.4391 292.612C23.7991 297.612 24.0391 302.552 24.3491 307.512C24.6591 312.472 24.9591 317.272 26.6891 321.792C28.0191 325.262 30.1491 328.412 31.1391 331.992C32.9891 338.722 30.5491 345.992 32.0491 352.832C33.3191 358.612 37.3191 363.582 38.1391 369.442C39.2791 377.672 33.9591 386.232 36.6791 394.082C38.0391 397.982 41.2391 401.082 42.1491 405.132C42.8591 408.252 42.0891 411.562 42.7291 414.692C43.7291 419.752 53.3891 423.692 58.5391 423.362" fill="#131F54"/>
<path d="M22.811 257.273C22.7974 257.42 22.7974 257.567 22.811 257.713C22.811 258.043 22.911 258.463 22.971 258.993C23.141 260.123 23.331 261.773 23.711 263.913C24.091 266.053 25.231 268.473 26.111 271.393C26.991 274.313 27.971 277.653 28.791 281.393C29.611 285.133 30.331 289.303 31.061 293.773C31.791 298.243 32.591 303.113 34.811 307.773C35.811 310.103 36.991 312.443 37.811 314.943C38.6512 317.502 39.1685 320.156 39.351 322.843C39.7598 328.545 40.4776 334.22 41.501 339.843C43.741 351.383 45.871 362.373 47.811 372.383C49.751 382.393 51.701 391.323 53.261 398.883C54.821 406.443 56.101 412.483 56.991 416.743L57.991 421.593C58.111 422.113 58.201 422.523 58.281 422.843C58.3081 422.99 58.3482 423.134 58.401 423.273C58.4187 423.127 58.4187 422.98 58.401 422.833C58.341 422.503 58.271 422.093 58.181 421.563C57.961 420.403 57.651 418.763 57.261 416.683C56.421 412.413 55.261 406.313 53.751 398.783C52.241 391.253 50.451 382.223 48.461 372.253C46.471 362.283 44.461 351.253 42.211 339.723C41.1869 334.1 40.4659 328.425 40.051 322.723C39.8607 319.981 39.3265 317.273 38.461 314.663C37.571 312.123 36.401 309.773 35.371 307.453C33.171 302.863 32.371 298.073 31.611 293.623C30.851 289.173 30.121 284.993 29.251 281.233C28.381 277.473 27.431 274.113 26.451 271.233C25.471 268.353 24.381 265.913 23.941 263.823C23.501 261.733 23.291 260.053 23.081 258.943C22.981 258.423 22.901 258.003 22.841 257.673C22.8389 257.54 22.8289 257.406 22.811 257.273Z" fill="#263238"/>
<path d="M375.47 48.3777H371.47C371.473 48.8313 371.384 49.281 371.21 49.6999C371.036 50.1188 370.779 50.4985 370.456 50.8165C370.132 51.1345 369.748 51.3843 369.326 51.5511C368.904 51.7179 368.453 51.7984 368 51.7877C367.33 51.8117 366.669 51.6261 366.11 51.2569C365.551 50.8876 365.121 50.353 364.88 49.7277C364.669 49.2069 364.585 48.6437 364.633 48.0841C364.682 47.5244 364.862 46.9842 365.16 46.5077C365.84 45.3877 367.32 44.3777 370 44.8477V35.8477H366.07V41.1077C364.457 41.5824 363.045 42.5732 362.049 43.928C361.054 45.2828 360.531 46.9268 360.56 48.6077C360.56 54.4277 365.78 55.7777 368.02 55.7777C369.73 55.8177 375.55 55.4077 375.47 48.3777Z" fill="#131F54"/>
<path d="M366.041 34.0273H370.031V30.2973H366.041V34.0273Z" fill="#131F54"/>
<path d="M397.279 43.0571C397.293 42.8874 397.293 42.7169 397.279 42.5471C397.279 42.1871 397.279 41.6971 397.279 41.0671C397.279 40.7471 397.279 40.3771 397.229 39.9771C397.179 39.5771 397.119 39.1371 397.049 38.6771C396.979 38.2171 396.909 37.6771 396.829 37.1471L396.409 35.4471C395.667 32.5195 394.451 29.7328 392.809 27.1971C390.426 23.4419 387.214 20.2831 383.419 17.9636C379.624 15.6441 375.348 14.2256 370.919 13.8171C369.589 13.6997 368.253 13.6729 366.919 13.7371C366.249 13.7371 365.559 13.7371 364.919 13.8671L362.859 14.1771C360.033 14.7025 357.298 15.6355 354.739 16.9471C352.069 18.3604 349.614 20.1485 347.449 22.2571C345.233 24.503 343.381 27.0806 341.959 29.8971C340.43 32.8008 339.427 35.9531 338.999 39.2071C338.874 40.0316 338.804 40.8634 338.789 41.6971C338.723 42.532 338.706 43.3702 338.739 44.2071C338.957 49.5716 340.634 54.7751 343.589 59.2571V58.9471C342.199 62.4171 340.829 65.8271 339.489 69.1471L339.249 69.7571L339.879 69.5771L350.779 66.5771L350.519 66.5171C354.19 69.2962 358.467 71.1672 362.999 71.9771C365.102 72.369 367.245 72.5 369.379 72.3671C370.409 72.3518 371.435 72.2548 372.449 72.0771L373.939 71.8471C374.429 71.7571 374.939 71.6071 375.379 71.4971C382.096 69.795 387.988 65.7573 391.999 60.1071C393.495 58.0256 394.697 55.7474 395.569 53.3371C395.759 52.8071 395.939 52.3371 396.109 51.8171C396.279 51.2971 396.369 50.8171 396.479 50.3671C396.589 49.9171 396.709 49.4571 396.809 49.0371C396.909 48.6171 396.939 48.2071 396.999 47.8171C397.089 47.0471 397.229 46.3671 397.259 45.8171C397.289 45.2671 397.259 44.7371 397.259 44.3171C397.259 43.8971 397.259 43.6371 397.259 43.4071C397.259 43.1771 397.259 43.0971 397.259 43.0971C397.244 43.1999 397.244 43.3044 397.259 43.4071C397.259 43.6371 397.259 43.9371 397.189 44.3171C397.119 44.6971 397.129 45.2271 397.089 45.8071C397.049 46.3871 396.899 47.0671 396.779 47.8071C395.826 53.3417 393.285 58.4803 389.467 62.5987C385.648 66.7171 380.716 69.6382 375.269 71.0071C374.799 71.1171 374.329 71.2571 373.849 71.3471L372.379 71.5671C371.388 71.7327 370.385 71.8229 369.379 71.8371C367.284 71.9476 365.183 71.81 363.119 71.4271C358.693 70.6125 354.518 68.7735 350.929 66.0571L350.809 65.9571H350.659L339.749 68.9571L340.129 69.3871L344.239 59.1971L344.299 59.0371L344.209 58.8871C342.24 55.9079 340.843 52.588 340.089 49.0971C339.744 47.4776 339.537 45.8317 339.469 44.1771C339.436 43.3602 339.453 42.542 339.519 41.7271C339.526 40.9133 339.592 40.101 339.719 39.2971C340.103 36.1193 341.048 33.0349 342.509 30.1871C343.899 27.4346 345.704 24.9118 347.859 22.7071C349.977 20.6371 352.382 18.8824 354.999 17.4971C357.5 16.1962 360.179 15.2696 362.949 14.7471L364.949 14.4371C365.619 14.3371 366.289 14.3471 366.949 14.2971C368.253 14.2351 369.559 14.2585 370.859 14.3671C375.215 14.7484 379.427 16.1174 383.175 18.3699C386.923 20.6225 390.108 23.6994 392.489 27.3671C394.14 29.8586 395.376 32.6007 396.149 35.4871L396.599 37.1671C396.689 37.6971 396.769 38.1671 396.849 38.6671C396.929 39.1671 396.989 39.5671 397.059 39.9671C397.129 40.3671 397.109 40.7271 397.139 41.0471C397.139 41.6671 397.219 42.1571 397.249 42.5171C397.23 42.6976 397.24 42.8799 397.279 43.0571Z" fill="#263238"/>
<path d="M235.968 369.242H178.008V423.372H235.968V369.242Z" fill="#131F54"/>
<path opacity="0.1" d="M235.968 369.242H178.008V423.372H235.968V369.242Z" fill="black"/>
<path d="M55.7972 51.8456L46.0372 48.8456C46.0372 48.8456 43.4772 57.0456 34.9172 54.5356C33.26 54.0793 31.7857 53.1191 30.6982 51.788C29.6107 50.4568 28.9639 48.8205 28.8472 47.1056C28.7191 45.6595 28.9381 44.2036 29.486 42.8591C30.0338 41.5146 30.8948 40.3203 31.9972 39.3756C34.5072 37.1556 38.9072 35.8056 45.1172 39.0156L51.9872 17.0156L42.3372 14.0156L38.3372 26.9056C38.3372 26.9056 23.6972 26.1756 19.0472 41.0856C14.5972 55.3556 26.3572 62.6656 31.8372 64.3756C35.9972 65.6756 50.6072 69.1156 55.7972 51.8456Z" fill="url(#paint8_linear_5643_520)"/>
<path d="M43.6472 9.4399L53.4414 12.4961L56.295 3.35098L46.5008 0.294784L43.6472 9.4399Z" fill="url(#paint9_linear_5643_520)"/>
<path d="M82.7279 27.0071L86.6379 26.0071C86.5186 25.5631 86.4897 25.0996 86.5531 24.6442C86.6164 24.1887 86.7707 23.7507 87.0067 23.3561C87.2427 22.9615 87.5557 22.6183 87.9269 22.3471C88.2982 22.0759 88.7203 21.882 89.1679 21.7771C89.8194 21.5805 90.5159 21.5913 91.1609 21.8081C91.8059 22.0249 92.3675 22.4369 92.7679 22.9871C93.1079 23.444 93.3349 23.9748 93.4305 24.5362C93.5261 25.0975 93.4875 25.6735 93.318 26.2171C92.948 27.4871 91.7579 28.8671 88.9979 29.0971L91.3279 37.9071L95.1879 36.9071L93.8279 31.7471C95.2917 30.8643 96.4245 29.5244 97.0516 27.9341C97.6787 26.3439 97.7652 24.5915 97.2979 22.9471C95.7979 17.2271 90.2979 17.2571 88.1279 17.8271C86.4479 18.2171 80.8379 20.1271 82.7279 27.0071Z" fill="url(#paint10_linear_5643_520)"/>
<path d="M96.5515 38.1905L92.6133 39.2461L93.5987 42.9224L97.5369 41.8668L96.5515 38.1905Z" fill="url(#paint11_linear_5643_520)"/>
<path d="M99.0713 160.986H156.821C156.821 160.986 156.821 112.496 207.211 111.636C233.381 111.176 246.951 128.326 252.471 141.456C258.871 156.706 256.931 174.086 248.351 188.236C238.561 204.386 217.461 220.616 178.541 213.756L178.171 342.426H235.281V266.146C235.281 266.146 315.371 245.446 315.371 157.146C315.371 72.6962 247.081 54.4562 210.371 53.2762C189.951 52.6262 182.551 51.7462 157.291 55.3362C125.101 59.9362 98.3913 97.3162 99.0713 160.986Z" fill="#131F54"/>
<path opacity="0.1" d="M99.0713 160.986H156.821C156.821 160.986 156.821 112.496 207.211 111.636C233.381 111.176 246.951 128.326 252.471 141.456C258.871 156.706 256.931 174.086 248.351 188.236C238.561 204.386 217.461 220.616 178.541 213.756L178.171 342.426H235.281V266.146C235.281 266.146 315.371 245.446 315.371 157.146C315.371 72.6962 247.081 54.4562 210.371 53.2762C189.951 52.6262 182.551 51.7462 157.291 55.3362C125.101 59.9362 98.3913 97.3162 99.0713 160.986Z" fill="black"/>
<path d="M75.1394 160.986H132.899C132.899 160.986 132.899 112.496 183.289 111.636C209.459 111.176 223.029 128.326 228.539 141.456C234.949 156.706 233.009 174.086 224.429 188.236C214.639 204.386 193.169 219.066 154.249 212.236V342.426H211.359V266.146C211.359 266.146 291.449 245.446 291.449 157.146C291.449 72.6959 215.709 53.0859 183.299 53.0859C158.509 53.1159 74.0494 59.1059 75.1394 160.986Z" fill="#131F54"/>
<path opacity="0.3" d="M75.1394 160.986H132.899C132.899 160.986 132.899 112.496 183.289 111.636C209.459 111.176 223.029 128.326 228.539 141.456C234.949 156.706 233.009 174.086 224.429 188.236C214.639 204.386 193.169 219.066 154.249 212.236V342.426H211.359V266.146C211.359 266.146 291.449 245.446 291.449 157.146C291.449 72.6959 215.709 53.0859 183.299 53.0859C158.509 53.1159 74.0494 59.1059 75.1394 160.986Z" fill="#131F54"/>
<path d="M212.05 369.242H154.09V423.372H212.05V369.242Z" fill="#131F54"/>
<path opacity="0.3" d="M212.05 369.242H154.09V423.372H212.05V369.242Z" fill="black"/>
<path d="M189.808 111.891C189.522 111.916 189.234 111.916 188.948 111.891C188.378 111.891 187.558 111.701 186.488 111.691C183.463 111.543 180.43 111.67 177.428 112.071C172.976 112.635 168.595 113.664 164.358 115.141C161.86 116.014 159.427 117.064 157.078 118.281C154.539 119.55 152.147 121.096 149.948 122.891C147.764 124.702 145.806 126.771 144.118 129.051C142.518 131.16 141.058 133.371 139.748 135.671C137.561 139.589 135.827 143.742 134.578 148.051C133.731 150.959 133.149 153.938 132.838 156.951C132.718 158.011 132.688 158.851 132.658 159.411C132.659 159.7 132.632 159.988 132.578 160.271C132.552 159.985 132.552 159.697 132.578 159.411C132.578 158.841 132.578 158.001 132.668 156.931C132.898 153.886 133.431 150.871 134.258 147.931C135.461 143.572 137.172 139.37 139.358 135.411C140.671 133.086 142.137 130.851 143.748 128.721C145.45 126.403 147.432 124.304 149.648 122.471C151.874 120.652 154.296 119.085 156.868 117.801C159.232 116.561 161.681 115.492 164.198 114.601C168.474 113.129 172.896 112.124 177.388 111.601C180.41 111.23 183.462 111.159 186.498 111.391C187.323 111.444 188.144 111.544 188.958 111.691C189.246 111.738 189.53 111.805 189.808 111.891Z" fill="#263238"/>
<path d="M276.831 101.601C276.831 101.601 276.761 101.531 276.641 101.381C276.521 101.231 276.341 100.971 276.141 100.681L274.231 97.9813C273.821 97.4012 273.381 96.7312 272.861 96.0412L271.061 93.8512L269.001 91.3212C268.251 90.4412 267.371 89.5912 266.491 88.6612C265.611 87.7312 264.711 86.7412 263.691 85.7912C262.671 84.8412 261.581 83.8712 260.461 82.8712C259.901 82.3712 259.351 81.8712 258.751 81.3412L256.891 79.8712C255.621 78.8712 254.361 77.8712 252.991 76.8712C247.02 72.5989 240.686 68.8579 234.061 65.6912L228.791 63.3112L223.561 61.3112C221.851 60.6012 220.111 60.1012 218.431 59.5412C216.751 58.9812 215.111 58.4112 213.431 58.0212L208.651 56.7712C207.101 56.3612 205.561 56.1112 204.091 55.7712C202.621 55.4312 201.201 55.1312 199.811 54.9612L195.811 54.3812C193.281 53.9512 190.961 53.8612 188.941 53.6612C187.941 53.5812 186.941 53.4712 186.111 53.4312L183.731 53.3712L180.431 53.2613H179.571H179.281C179.377 53.2462 179.475 53.2462 179.571 53.2613H180.431H183.731H186.121C186.991 53.2613 187.941 53.3812 188.961 53.4512C190.961 53.6212 193.321 53.6912 195.851 54.1012L199.851 54.6412C201.241 54.8012 202.661 55.1612 204.141 55.4312C205.621 55.7012 207.141 55.9812 208.731 56.4312L213.531 57.6712C215.191 58.0512 216.831 58.6712 218.531 59.1812C220.231 59.6912 221.961 60.1812 223.671 60.9412L228.931 62.9412L234.231 65.3313C240.891 68.5051 247.25 72.2738 253.231 76.5912C254.611 77.5912 255.871 78.6613 257.141 79.6513L259.001 81.0012C259.601 81.5012 260.151 82.0012 260.711 82.5413L263.931 85.5412C264.931 86.5412 265.831 87.5413 266.721 88.4513C267.611 89.3613 268.461 90.2512 269.211 91.1412L271.211 93.6912L272.991 95.9112C273.501 96.6112 273.931 97.2912 274.331 97.9112C275.111 99.0812 275.721 100.001 276.151 100.661L276.621 101.391C276.7 101.452 276.771 101.522 276.831 101.601Z" fill="#263238"/>
<path d="M270.81 225.602C270.691 225.818 270.547 226.019 270.38 226.202L269 227.832C268.43 228.562 267.71 229.432 266.82 230.402C265.93 231.372 264.98 232.512 263.82 233.692C262.66 234.872 261.42 236.192 260.01 237.522C258.6 238.852 257.07 240.252 255.44 241.712C248.291 247.952 240.454 253.357 232.08 257.822C230.14 258.822 228.31 259.822 226.54 260.592C224.77 261.362 223.12 262.152 221.6 262.792C220.08 263.432 218.68 263.962 217.46 264.432C216.24 264.902 215.17 265.282 214.29 265.562L212.29 266.212C212.058 266.304 211.817 266.371 211.57 266.412C211.786 266.288 212.014 266.188 212.25 266.112L214.25 265.372C215.12 265.062 216.17 264.662 217.38 264.162C218.59 263.662 219.99 263.162 221.49 262.452C222.99 261.742 224.65 261.072 226.38 260.202C228.11 259.332 229.96 258.412 231.89 257.402C235.7 255.302 239.81 252.842 243.96 250.002C248.11 247.162 251.84 244.172 255.16 241.352C256.79 239.912 258.35 238.562 259.74 237.202C261.13 235.842 262.43 234.612 263.58 233.432C264.73 232.252 265.74 231.162 266.64 230.202C267.54 229.242 268.28 228.402 268.88 227.702L270.28 226.112C270.443 225.928 270.62 225.757 270.81 225.602Z" fill="#263238"/>
<path d="M210.348 337.883C210.198 337.883 210.078 321.823 210.078 302.013C210.078 282.203 210.198 266.133 210.348 266.133C210.498 266.133 210.608 282.193 210.608 302.013C210.608 321.833 210.488 337.883 210.348 337.883Z" fill="#263238"/>
<path d="M212.549 419.702C212.399 419.702 212.289 408.432 212.289 394.532C212.289 380.632 212.399 369.352 212.549 369.352C212.699 369.352 212.809 380.622 212.809 394.532C212.809 408.442 212.689 419.702 212.549 419.702Z" fill="#263238"/>
<defs>
<linearGradient id="paint0_linear_5643_520" x1="385.106" y1="623.802" x2="34.6081" y2="422.588" gradientUnits="userSpaceOnUse">
<stop stop-color="#FFF807"/>
<stop offset="1" stop-color="#00A0FD"/>
</linearGradient>
<linearGradient id="paint1_linear_5643_520" x1="339.36" y1="771.855" x2="-196.449" y2="533.55" gradientUnits="userSpaceOnUse">
<stop stop-color="#FFF807"/>
<stop offset="1" stop-color="#00A0FD"/>
</linearGradient>
<linearGradient id="paint2_linear_5643_520" x1="74.3716" y1="267.173" x2="-61.3981" y2="180.808" gradientUnits="userSpaceOnUse">
<stop stop-color="#FFF807"/>
<stop offset="1" stop-color="#00A0FD"/>
</linearGradient>
<linearGradient id="paint3_linear_5643_520" x1="50.5288" y1="210.086" x2="15.3841" y2="196.769" gradientUnits="userSpaceOnUse">
<stop stop-color="#FFF807"/>
<stop offset="1" stop-color="#00A0FD"/>
</linearGradient>
<linearGradient id="paint4_linear_5643_520" x1="438.926" y1="178.6" x2="375.913" y2="140.161" gradientUnits="userSpaceOnUse">
<stop stop-color="#FFF807"/>
<stop offset="1" stop-color="#00A0FD"/>
</linearGradient>
<linearGradient id="paint5_linear_5643_520" x1="410.866" y1="156.62" x2="402.519" y2="141.085" gradientUnits="userSpaceOnUse">
<stop stop-color="#FFF807"/>
<stop offset="1" stop-color="#00A0FD"/>
</linearGradient>
<linearGradient id="paint6_linear_5643_520" x1="438.681" y1="270.552" x2="342.57" y2="209.582" gradientUnits="userSpaceOnUse">
<stop stop-color="#FFF807"/>
<stop offset="1" stop-color="#00A0FD"/>
</linearGradient>
<linearGradient id="paint7_linear_5643_520" x1="374.466" y1="175.081" x2="399.355" y2="184.527" gradientUnits="userSpaceOnUse">
<stop stop-color="#FFF807"/>
<stop offset="1" stop-color="#00A0FD"/>
</linearGradient>
<linearGradient id="paint8_linear_5643_520" x1="103.017" y1="154.775" x2="-57.0324" y2="56.8156" gradientUnits="userSpaceOnUse">
<stop stop-color="#FFF807"/>
<stop offset="1" stop-color="#00A0FD"/>
</linearGradient>
<linearGradient id="paint9_linear_5643_520" x1="39.1856" y1="-19.3644" x2="62.0316" y2="18.9052" gradientUnits="userSpaceOnUse">
<stop stop-color="#FFF807"/>
<stop offset="1" stop-color="#00A0FD"/>
</linearGradient>
<linearGradient id="paint10_linear_5643_520" x1="116.679" y1="73.1001" x2="52.863" y2="33.0766" gradientUnits="userSpaceOnUse">
<stop stop-color="#FFF807"/>
<stop offset="1" stop-color="#00A0FD"/>
</linearGradient>
<linearGradient id="paint11_linear_5643_520" x1="104.171" y1="46.9114" x2="88.3687" y2="38.9165" gradientUnits="userSpaceOnUse">
<stop stop-color="#FFF807"/>
<stop offset="1" stop-color="#00A0FD"/>
</linearGradient>
</defs>
</svg>
