<svg width="68" height="68" viewBox="0 0 68 68" fill="none" xmlns="http://www.w3.org/2000/svg">
<rect width="68" height="68" rx="20" fill="#131F54"/>
<g clip-path="url(#clip0_5113_9231)">
<path d="M52.209 38.4385H48.7705V35.1409H52.1884C51.8061 31.184 50.1244 27.4624 47.4033 24.551L45.5473 26.397L43.2163 24.0615L44.9492 22.3379C42.1049 20.2135 38.6967 18.9653 35.1465 18.7478V21.1582H31.8344V18.8396C28.307 19.2587 24.98 20.6958 22.2641 22.9736L24.0825 24.7822L21.7412 27.1109L19.9331 25.3125C17.6066 28.1032 16.1776 31.5252 15.8315 35.1341H18.812V38.4385H15.7939C16.0987 42.0473 17.4859 45.4819 19.7758 48.2974L22.3017 45.7851L24.643 48.1139L22.0796 50.6636L22.1137 50.6908L20.3466 52.7306C17.1091 49.9711 14.7923 46.2972 13.7039 42.1969C12.6155 38.0966 12.8071 33.764 14.2532 29.7745C15.6993 25.7851 18.3315 22.3277 21.8001 19.8616C25.2687 17.3955 29.4096 16.0374 33.6727 15.9677C37.9358 15.898 42.1193 17.12 45.6676 19.4713C49.2158 21.8227 51.9608 25.1922 53.538 29.1322C55.1152 33.0722 55.4499 37.3962 54.4976 41.5298C53.5453 45.6635 51.3511 49.4112 48.2065 52.275L47.0068 50.9797L44.105 48.1173L46.4463 45.7885L48.5483 47.8929C49.4217 46.7508 50.1571 45.5104 50.7392 44.1975C51.5476 42.3653 52.0443 40.4122 52.209 38.4181V38.4385ZM34.0014 29.9394C34.4158 29.9386 34.8293 29.9796 35.2353 30.0618L31.3901 32.9413C31.3426 32.975 31.298 33.0125 31.2568 33.0535C29.7837 34.2842 29.4453 35.8378 29.811 37.1874C29.9989 37.8747 30.3669 38.5 30.8774 38.9994C31.393 39.5023 32.0372 39.8551 32.7402 40.0193C34.1552 40.3593 35.8164 39.9241 37.1836 38.1869C37.2174 38.1461 37.2482 38.1029 37.2758 38.0577L39.9419 34.4133C40.2778 35.6444 40.2196 36.949 39.7755 38.1456C39.3314 39.3423 38.5234 40.3715 37.4638 41.0902C36.6675 41.627 35.7558 41.9707 34.8018 42.0935C33.8478 42.2163 32.8781 42.1149 31.9706 41.7974C31.0632 41.4799 30.2432 40.9552 29.5765 40.2654C28.9099 39.5756 28.4152 38.7399 28.1321 37.8255C27.849 36.9111 27.7855 35.9433 27.9466 35C28.1077 34.0567 28.4889 33.1642 29.0597 32.394C29.6304 31.6238 30.3748 30.9974 31.2331 30.5653C32.0913 30.1331 33.0395 29.9071 34.0014 29.9054V29.9394Z" fill="url(#paint0_linear_5113_9231)"/>
<path fill-rule="evenodd" clip-rule="evenodd" d="M42.2638 26.4414L32.2082 34.0192C28.9748 36.5961 33.1652 41.0768 36.1115 37.3644L43.3747 27.4409L42.2638 26.4414Z" fill="url(#paint1_linear_5113_9231)"/>
</g>
<defs>
<linearGradient id="paint0_linear_5113_9231" x1="107.612" y1="116.39" x2="-20.4826" y2="-5.9784" gradientUnits="userSpaceOnUse">
<stop stop-color="#FFF807"/>
<stop offset="1" stop-color="#00A0FD"/>
</linearGradient>
<linearGradient id="paint1_linear_5113_9231" x1="58.8111" y1="60.14" x2="16.4666" y2="24.751" gradientUnits="userSpaceOnUse">
<stop stop-color="#FFF807"/>
<stop offset="1" stop-color="#00A0FD"/>
</linearGradient>
<clipPath id="clip0_5113_9231">
<rect width="42" height="36.75" fill="white" transform="translate(13 16)"/>
</clipPath>
</defs>
</svg>
