<svg width="68" height="68" viewBox="0 0 68 68" fill="none" xmlns="http://www.w3.org/2000/svg">
<rect width="68" height="68" rx="20" fill="#131F54"/>
<path d="M53.3594 24.5726C54.2655 24.5726 55 23.8381 55 22.932V21.2093C55 16.6827 51.3172 13 46.7906 13C46.7906 13 21.0732 13.0039 21.0098 13.0113C18.8451 13.087 16.7657 14.0159 15.2668 15.5864C13.7304 17.1962 12.9295 19.29 13.0049 21.4929C13.0018 21.5347 13.0001 45.1562 13.0001 45.1562C13.0001 50.5874 17.4188 55.0061 22.8501 55.0061H46.7907C51.3173 55.0061 55 51.3234 55 46.7968V34.3405C55 29.8139 51.3173 26.1312 46.7907 26.1312H21.2031C18.569 26.1312 16.4095 24.0724 16.2867 21.4441C16.2243 20.1077 16.705 18.8319 17.6404 17.8518C18.5892 16.8576 19.9218 16.2875 21.2963 16.2875C21.3448 16.2875 46.7905 16.2812 46.7905 16.2812C49.5079 16.2812 51.7186 18.492 51.7186 21.2093V22.932C51.7188 23.8381 52.4533 24.5726 53.3594 24.5726ZM21.2031 29.4124H46.7906C49.5079 29.4124 51.7187 31.6232 51.7187 34.3405V46.7968C51.7187 49.5141 49.5079 51.7249 46.7906 51.7249H22.8501C19.2281 51.7249 16.2814 48.7782 16.2814 45.1562V27.7785C17.6536 28.8063 19.3586 29.4124 21.2031 29.4124Z" fill="url(#paint0_linear_5113_9225)"/>
<path d="M48.4374 40.5742C48.4374 41.7068 47.5193 42.6249 46.3867 42.6249C45.254 42.6249 44.3359 41.7068 44.3359 40.5742C44.3359 39.4416 45.254 38.5234 46.3867 38.5234C47.5193 38.5234 48.4374 39.4416 48.4374 40.5742ZM48.4374 21.2148C48.4374 20.3087 47.7029 19.5742 46.7968 19.5742H21.2031C20.297 19.5742 19.5625 20.3087 19.5625 21.2148C19.5625 22.121 20.297 22.8555 21.2031 22.8555H46.7968C47.7028 22.8555 48.4374 22.121 48.4374 21.2148Z" fill="url(#paint1_linear_5113_9225)"/>
<defs>
<linearGradient id="paint0_linear_5113_9225" x1="107.558" y1="127.74" x2="-36.6195" y2="7.24839" gradientUnits="userSpaceOnUse">
<stop stop-color="#FFF807"/>
<stop offset="1" stop-color="#00A0FD"/>
</linearGradient>
<linearGradient id="paint1_linear_5113_9225" x1="84.5707" y1="82.5373" x2="4.26131" y2="-1.5491" gradientUnits="userSpaceOnUse">
<stop stop-color="#FFF807"/>
<stop offset="1" stop-color="#00A0FD"/>
</linearGradient>
</defs>
</svg>
