<svg width="68" height="68" viewBox="0 0 68 68" fill="none" xmlns="http://www.w3.org/2000/svg">
<rect width="68" height="68" rx="20" fill="#131F54"/>
<path fill-rule="evenodd" clip-rule="evenodd" d="M35.1553 37.3345L51.6982 37.6079C51.6982 43.4834 48.7759 48.9761 43.9019 52.2573L35.1553 37.3345ZM33.5044 34.4805L33.3164 15.2407L33.3062 14L34.54 14.0854H34.5435H34.5469C36.1055 14.1948 37.6162 14.4683 39.062 14.8818C40.5078 15.2954 41.8955 15.8594 43.208 16.5464C49.9312 20.0806 54.5796 26.9917 54.9453 35.0103L55 36.2441L53.7661 36.2065L34.6187 35.6187L33.5146 35.5845L33.5044 34.4805ZM35.6235 16.5054L35.7876 33.3594L52.5562 33.8721C51.8384 27.2241 47.812 21.5605 42.1382 18.5801C40.9727 17.9683 39.7319 17.4658 38.4331 17.0933C37.5205 16.8301 36.584 16.6353 35.6235 16.5054ZM31.8638 36.3228L41.2974 52.6606C38.4331 54.3149 35.1724 55.1865 31.8638 55.1865C21.4458 55.1865 13 46.7373 13 36.3228C13 26.2158 20.9673 17.8999 31.0674 17.4761L31.8638 36.3228Z" fill="url(#paint0_linear_5113_9229)"/>
<defs>
<linearGradient id="paint0_linear_5113_9229" x1="107.558" y1="126.501" x2="-34.2752" y2="5.61014" gradientUnits="userSpaceOnUse">
<stop stop-color="#FFF807"/>
<stop offset="1" stop-color="#00A0FD"/>
</linearGradient>
</defs>
</svg>
